
<svg xmlns="http://www.w3.org/2000/svg" version="1.1" xmlns:xlink="http://www.w3.org/1999/xlink" preserveAspectRatio="none" x="0px" y="0px" width="1280px" height="720px" viewBox="0 0 1280 720">
<defs/>

<g id="___1">
<g transform="matrix( 1, 0, 0, 1, 0,0) ">
<g>
<g>
<path fill="none" class="bg-contanier" stroke="none" d="
M 781.75 679.8
Q 822.6 687.6 859.95 692.15 962.75 704.6 1039.1 692.15 1284.4 652.05 1256.05 354.4 1215.7 -69.6 803.75 90 510.25 -0.5 381.9 189.95 34.25 89.2 28 386.2 27.75 397.1 28 408.5 29.4 477.6 47.55 566.2 -25.25 679.65 327.85 692.15 415.35 695.25 529 692.15 642.35 689.05 781.75 679.8 Z"/>
</g>
</g>
</g>

<g transform="matrix( 1, 0, 0, 1, 9,-38) ">
<g>
<g>
<path fill="#A3A3A3" stroke="none" d="
M 283.8 619.7
Q 283.7 627 292.3 624.2 300.25 619.4 306.3 624.2 318.05 628.1 347.3 599.7 361.5 596.55 362.65 590.7 363.3 587.55 359 586.65 355.7 582.15 362.65 582 364.85 584.1 368.8 581.7 388.05 579.2 375.8 575.2 379.55 565.65 365.8 571.2 323.3 553.7 280.8 585.7 268.75 587 261.8 595.2 247 601.1 245.3 610.7 234.35 609.9 235.8 620.2
L 230.65 620.2
Q 232.2 621.7 229.35 623.4 239.4 623.9 241.3 619.7 246.55 630.85 261.3 619.2 267.15 613.45 268.3 621.2 264.1 634.35 283.8 619.7 Z"/>
</g>
</g>
</g>

<g transform="matrix( 0.63995361328125, 0, 0, 0.63995361328125, 149.35,135.65) ">
<g>
<g>
<path fill="#466A36" fill-opacity="0.9882352941176471" stroke="none" d="
M 535.6 384.9
Q 522.55 374.5 503.85 397.8 533.5 398.1 535.6 384.9
M 492.45 416.25
L 493.25 415
Q 504.25 392.85 486.05 378.7 478.5 402.25 491.55 417.75 491.95 417.15 492.45 416.25
M 493.25 415
L 492.45 416.25
Q 491.95 417.15 491.55 417.75 517.05 421.25 527.35 405.45 505.45 396.45 493.25 415
M 504.3 397
L 504.6 396.45
Q 513.95 380.4 500.4 365 491.6 385.8 503.85 397.8 504.05 397.35 504.3 397
M 514.3 384.45
Q 532.9 376.15 527.4 359.5 515.6 364.15 514.3 384.45 Z"/>
</g>
</g>

<g transform="matrix( 1.5626068115234375, 0, 0, 1.5626068115234375, -233.35,-211.95) ">
<path stroke="#466A36" stroke-width="3" stroke-linejoin="round" stroke-linecap="round" fill="none" d="
M 478.4781433105468 381.68016662597654
L 472.2705932617188 389.35960998535154 472.0786071777344 389.7115844726562
Q 471.9186187744141 389.9355682373047 471.79062805175784 390.2235473632812 467.0229736328125 397.9029907226562 465.0071197509766 401.2307495117187
M 463.91919860839846 402.99062194824216
Q 460.9114166259766 408.0142578125 458.1596160888672 412.6859191894531 457.00769958496096 414.6377777099609 455.91977844238284 416.55763854980466 453.0399871826172 422.0612396240234 451.31211242675784 428.84474792480466 447.72837219238284 443.01972045898435 449.07227478027346 462.73029174804685
M 465.0071197509766 401.2307495117187
L 464.4951568603516 402.0306915283203
Q 464.17518005371096 402.6066497802734 463.91919860839846 402.99062194824216"/>
</g>
</g>

<g transform="matrix( 0.43890380859375, 0, 0, 0.43890380859375, 238.95,230.2) ">
<g>
<g>
<path fill="#466A36" fill-opacity="0.9882352941176471" stroke="none" d="
M 464 397.85
Q 451.45 369.75 412.1 380 434.5 413.8 464 397.85
M 495.1 355
Q 463.8 360.7 464 397.85 497 393.85 495.1 355
M 417.4 309.8
Q 390.1 275.85 371.05 291 374.1 310.3 417.4 309.8
M 467.1 303
Q 436.3 328 453.55 369.8 482.7 343.85 467.1 303
M 453.55 369.8
Q 451.05 365.45 448.4 361 432.5 340.2 394.1 349 414.5 380.3 453.55 369.8
M 433.95 336.7
L 432.8 334.9
Q 415.05 307.85 383.1 321 398.15 344 435.3 338.95 434.75 338.05 433.95 336.7
M 432.8 334.9
L 433.95 336.7
Q 434.75 338.05 435.3 338.95 454.35 316.3 443.3 282 416.75 302.65 432.8 334.9
M 416.25 307.9
L 416.7 308.65
Q 417.05 309.2 417.4 309.8 435.25 292.35 422.4 262 402.65 284.45 416.25 307.9
M 383.05 254
Q 375 278.3 402.15 290.35 400.25 260.75 383.05 254 Z"/>
</g>
</g>

<g transform="matrix( 2.2783966064453125, 0, 0, 2.2783966064453125, -544.4,-524.45) ">
<path stroke="#466A36" stroke-width="3" stroke-linejoin="round" stroke-linecap="round" fill="none" d="
M 421.6437103271484 365.3384826660156
L 421.8412170410156 365.6676605224609
Q 421.9948333740234 365.9090576171875 422.1484497070312 366.1723999023437
M 415.4551666259765 357.63572082519534
L 421.6437103271484 365.3384826660156
M 422.1484497070312 366.1723999023437
Q 426.9105560302734 373.8751617431641 428.907568359375 377.18888549804683
M 430.00482788085935 378.96644592285156
Q 433.0113189697265 383.99189453124995 435.75446777343745 388.64427490234374 437.0492340087891 390.35599975585933 438.0148223876953 392.5066284179687 440.86769714355466 398.03681640624995 442.6013671875 404.81788024902346 446.20037841796875 418.9944732666015 444.83977661132815 438.67930908203124
M 428.907568359375 377.18888549804683
L 429.4123077392578 377.9789123535156
Q 429.7634307861328 378.57143249511716 430.00482788085935 378.96644592285156
M 435.75446777343745 388.64427490234374
Q 436.9175628662109 390.59739685058594 438.0148223876953 392.5066284179687"/>
</g>
</g>

<g transform="matrix( 1, 0, 0, 1, -60,-38) ">
<g>
<g>
<path fill="#466A36" stroke="none" d="
M 961.5 511.05
Q 962.65 511.2 963.8 511.4 968.3 512.15 972.4 513 972.45 512.9 972.5 512.75 980.2 492.1 986.3 467.3 975.1 493.05 967.8 505.3 960.75 503.3 959.35 491.9 954.35 503.15 961.5 511.05 Z"/>
</g>
</g>
</g>

<g transform="matrix( 1, 0, 0, 1, 0,0) ">
<g>
<g>
<path fill="#9399DC" stroke="none" d="
M 587 489.6
Q 663.4 481.7 657.35 457.45 646.4 442.8 587 489.6 Z"/>

<path fill="#466A36" stroke="none" d="
M 676.4 508.45
Q 790.05 479.5 865.8 472.65 891.9 395.65 857.4 389.75 771.75 384.9 637.35 514.7 654.6 514.8 676.4 508.45
M 930.45 568.35
Q 928.05 531.05 902.45 519.55 842.5 499.35 706.4 567.2 626.4 530.7 469.35 562.8 495.2 494.5 453.35 476.3 357.4 453.1 285.9 473.25 282.85 474.1 279.9 475.05 265.2 479.6 251.55 486.05 245.3 489.05 239.25 492.45
L 267.3 376.25 263.3 376.25 234.5 495.15
Q 190.85 521.05 159.25 568.35
L 930.45 568.35 Z"/>

<path fill="#819B5F" stroke="none" d="
M 951.8 473.55
Q 950.65 473.3 949.5 473.15 917.85 467.95 865.8 472.65 790.05 479.5 676.4 508.45 654.6 514.8 637.35 514.7 603.4 514.55 587 489.6 581.65 481.55 578.2 470.95 558.55 410.55 496.35 403.1 395 406.85 307.85 451.75 299.75 455.9 291.85 460.4 288.35 462.35 284.95 464.4 282.45 465.9 279.95 467.4 265.55 476.15 251.55 486.05 265.2 479.6 279.9 475.05 282.85 474.1 285.9 473.25 357.4 453.1 453.35 476.3 495.2 494.5 469.35 562.8 626.4 530.7 706.4 567.2 842.5 499.35 902.45 519.55 928.05 531.05 930.45 568.35
L 1022.45 567.2
Q 1058.5 509.6 981.45 481.85 975.1 479.15 966.85 476.9 963.9 476.1 960.7 475.35 960.55 475.35 960.4 475.3 956.3 474.35 951.8 473.55 Z"/>
</g>
</g>
</g>

<g transform="matrix( 1, 0, 0, 1, 0,0) ">
<g>
<g>
<path fill="#466A36" stroke="none" d="
M 562.25 596.5
Q 562.35 597.8 562.3 599.15 616 603.5 651.1 599.15 611.25 592.5 562.25 596.5
M 1107.1 565.85
Q 1107.2 567.45 1107.15 569.15 1174.25 574.55 1218.15 569.15 1168.35 560.85 1107.1 565.85
M 1032.45 536.95
Q 1031.15 543.1 1029.15 550.3 1080.6 512.6 1100.15 488.2
L 1032.45 536.95
M 915.1 577.35
Q 915.2 578.95 915.15 580.7 982.25 586.05 1026.15 580.7 976.35 572.35 915.1 577.35 Z"/>

<path fill="#D8BB86" stroke="none" d="
M 366.3 581.8
Q 365.5 589.35 379.3 585.1 378.1 596.05 458.25 590.65 479.65 591.55 469.25 582.9 508.85 585.65 508.25 570.7
L 349.3 570.7
Q 342.4 577.1 366.3 581.8
M 241.3 588.45
Q 272.95 589.55 273.3 582.9
L 142.3 582.9 142.3 588.45 241.3 588.45
M 797.25 590.65
Q 820.45 589.2 820.05 584
L 529.25 584 529.25 590.65 797.25 590.65 Z"/>

<path fill="#668A56" stroke="none" d="
M 1032.45 536.95
Q 1041.85 492.6 1015.75 502.4 977.45 516.7 944.15 569.15
L 1107.15 569.15
Q 1107.2 567.45 1107.1 565.85 1104.75 526.15 1029.15 550.3 1031.15 543.1 1032.45 536.95 Z"/>
</g>
</g>
</g>

<g transform="matrix( 1, 0, 0, 1.1086883544921875, -12,-93.45) ">
<g>
<g>
<path fill="#466A36" stroke="none" d="
M 303.85 499.55
Q 311.75 495.5 319.85 491.75
L 383.3 381.65 303.85 499.55
M 291.95 505.85
Q 294.45 504.5 296.95 503.15
L 292.3 464.65 291.95 505.85 Z"/>
</g>
</g>
</g>

<g transform="matrix( 1, 0, 0, 1, -12,-26) ">
<g>
<g>
<path fill="#4E744F" stroke="none" d="
M 996.05 587.6
L 996.1 587.65
Q 996.15 588.8 996.25 590.2 1003 578.1 1013.3 567.1 1003 578.1 996.25 590.2 996.4 591.7 996.6 593.3 1029.3 560.6 1025.65 554.05 1009 557.6 996.05 587.6
M 982.9 583.8
Q 985.8 585.3 988.6 587.5 979.05 569.8 967.95 553.15 979.05 569.8 988.6 587.5 990.65 589.1 992.5 591
L 993.6 589.95 989.2 580.5
Q 977.8 556.75 960.5 541.65 966 559.85 976.45 575.15 979.4 579.6 982.9 583.8
M 938.95 561.35
Q 937.65 561.45 936.4 561.75 937.95 562.7 939.55 563.65 955.75 573.3 972.95 580.9 978.15 581.4 982.9 583.8 979.4 579.6 976.45 575.15 953.9 559.75 938.95 561.35 Z"/>

<path fill="#9692A5" stroke="none" d="
M 980.05 549.5
L 975.65 545.25 976.4 548.15 989.2 580.5 993.6 589.95 993.8 589.75 992.55 579.95 981.75 552.9
Q 980.85 551.15 980.05 549.5
M 998.3 556.15
L 993.5 558.85 989.8 550.85
Q 990.95 554.65 991.35 558.45
L 992.55 579.95 993.8 589.75 996.1 587.65 996.05 587.6
Q 995.8 580.15 994.5 567.65 994.5 560.3 998.3 556.15 Z"/>

<path fill="#C88E5C" stroke="none" d="
M 1004.1 524.4
Q 1001.55 522.8 999.9 527.1 999.901171875 527.15 999.9 527.2 999.85 532.05 998.35 536.55 1003.2 528.65 1009.85 524.6 1008.9 523.95 1009.35 522.25 1010.4 518.2 1008 519.45 1004.9 521.25 1004.9 523 1004.95 524.7 1004.1 524.4
M 956.5 505.85
Q 955.55 505.35 954.95 505.35 953.65 505.45 954.6 508.05 956.15 511.1 960.1 512.55 959.75 502.8 963.8 499.2 962.5 495.3 960.65 498.45 960.25 495.3 959.05 495.35 958.35 495.4 957.85 495.9 956.15 497.45 958.4 502.35 956.75 500.65 956.05 500.95 954.15 501.65 957 504.55 958.9 506.75 956.5 505.85 Z"/>

<path fill="#A47EC5" stroke="none" d="
M 1003.45 514.75
Q 1001.6 510.65 997.4 507.7 990.2 511.5 985.6 518.95 987.15 522.45 987.6 525.95 990.4 514.85 997.65 513.75 1000.0314453125 520.695703125 999.9 527.1
L 1003.45 514.75
M 1015.4 521.95
Q 1017.75 531.7 1013.6 538.85 1018.55 530.8 1024.8 526.4 1030.45 514.25 1019.7 516.9
L 1015.4 521.95
M 959.4 516.9
Q 960.1 517.65 960.85 518.35 960.2 514.9 960.1 512.55 956.15 511.1 954.6 508.05 953.65 505.45 954.95 505.35 951.4 498.75 947.45 495.35 945.6 493.75 943.55 492.85 940.8 501 943.75 507.35 952 510.05 959.4 516.9
M 965.2 483.7
Q 960.75 486.4 959.3 490.75 958.5 493.1 957.85 495.9 958.35 495.4 959.05 495.35 960.25 495.3 960.65 498.45 962.5 495.3 963.8 499.2 964.3 498.85 964.8 498.55 969.95 498.5 974.1 510.95 973.95 506 975.15 501.65 970.3 488.75 965.2 483.7 Z"/>

<path fill="#7C689B" stroke="none" d="
M 1015.4 521.95
L 1019.7 516.9
Q 1019.8 504.15 1003.45 514.75
L 999.9 527.1
Q 1001.55 522.8 1004.1 524.4 1004.95 524.7 1004.9 523 1004.9 521.25 1008 519.45 1010.4 518.2 1009.35 522.25 1008.9 523.95 1009.85 524.6 1012.45 523 1015.4 521.95
M 959.3 490.75
Q 956.15 485.9 952.45 484.75 949.15 487.7 947.45 495.35 951.4 498.75 954.95 505.35 955.55 505.35 956.5 505.85 958.9 506.75 957 504.55 954.15 501.65 956.05 500.95 956.75 500.65 958.4 502.35 956.15 497.45 957.85 495.9 958.5 493.1 959.3 490.75 Z"/>

<path fill="#8258A3" stroke="none" d="
M 1026.7 525.2
Q 1025.75 525.75 1024.8 526.4 1018.55 530.8 1013.6 538.85
L 1013.45 539.1 1013.6 538.85
Q 1017.75 531.7 1015.4 521.95 1012.45 523 1009.85 524.6 1003.2 528.65 998.35 536.55 997.45 539.45 995.85 542.25 997.45 539.45 998.35 536.55 999.85 532.05 999.9 527.2 999.901171875 527.15 999.9 527.1 1000.0314453125 520.695703125 997.65 513.75 990.4 514.85 987.6 525.95 987.7 527.1 987.7 528.4 987.7 527.1 987.6 525.95 987.15 522.45 985.6 518.95 985.2 518 984.65 517 981.3 530.1 986.85 543.2 988.7 547 989.8 550.85
L 993.5 558.85 998.3 556.15
Q 1000.2 554.1 1003.2 552.8 1012.7 548.65 1020.4 541.8 1029.3 533.05 1026.7 525.2
M 997.35 552.4
Q 1000.05 543.05 1007.5 536 1000.05 543.05 997.35 552.4
M 964.8 498.55
Q 964.3 498.85 963.8 499.2 959.75 502.8 960.1 512.55 960.2 514.9 960.85 518.35 961.5 519 962.1 519.55 961.5 519 960.85 518.35 960.1 517.65 959.4 516.9 952 510.05 943.75 507.35 940.65 506.3 937.35 505.9 940.3 526.45 962.2 532.3 972.05 535.9 975.45 545.75
L 976.4 548.15 975.65 545.25 980.05 549.5
Q 973.2 534.85 976 530.55
L 979.15 524.45
Q 988.75 506.45 979.75 491.85 976.45 496.3 975.15 501.65 973.95 506 974.1 510.95 974.15 512.6 974.35 514.3 974.15 512.6 974.1 510.95 969.95 498.5 964.8 498.55 Z"/>

<path fill="#839246" stroke="none" d="
M 964.35 581.35
Q 956.05 582.75 953.05 586.25 970.65 588.6 985.15 597.7 989.6 600.7 992.9 598.45 980.35 585.15 964.35 581.35
M 968.25 580.85
Q 966.2 581.05 964.35 581.35 980.35 585.15 992.9 598.45 995 597.05 996.6 593.3 996.4 591.7 996.25 590.2 996.15 588.8 996.1 587.65
L 993.8 589.75 993.6 589.95 992.5 591
Q 990.65 589.1 988.6 587.5 985.8 585.3 982.9 583.8 978.15 581.4 972.95 580.9 970.7 580.65 968.25 580.85 Z"/>
</g>
</g>

<g>
<path stroke="#49375D" stroke-width="1" stroke-linejoin="round" stroke-linecap="round" fill="none" d="
M 947.45 495.35
Q 949.15 487.7 952.45 484.75 956.15 485.9 959.3 490.75 960.75 486.4 965.2 483.7 970.3 488.75 975.15 501.65 976.45 496.3 979.75 491.85 988.75 506.45 979.15 524.45
L 976 530.55
Q 973.2 534.85 980.05 549.5 980.85 551.15 981.75 552.9
L 992.55 579.95 991.35 558.45
Q 990.95 554.65 989.8 550.85 988.7 547 986.85 543.2 981.3 530.1 984.65 517 985.2 518 985.6 518.95 990.2 511.5 997.4 507.7 1001.6 510.65 1003.45 514.75 1019.8 504.15 1019.7 516.9 1030.45 514.25 1024.8 526.4 1025.75 525.75 1026.7 525.2 1029.3 533.05 1020.4 541.8 1012.7 548.65 1003.2 552.8 1000.2 554.1 998.3 556.15 994.5 560.3 994.5 567.65 995.8 580.15 996.05 587.6 1009 557.6 1025.65 554.05 1029.3 560.6 996.6 593.3 995 597.05 992.9 598.45 989.6 600.7 985.15 597.7 970.65 588.6 953.05 586.25 956.05 582.75 964.35 581.35 966.2 581.05 968.25 580.85 970.7 580.65 972.95 580.9 955.75 573.3 939.55 563.65 937.95 562.7 936.4 561.75 937.65 561.45 938.95 561.35 953.9 559.75 976.45 575.15 966 559.85 960.5 541.65 977.8 556.75 989.2 580.5
L 976.4 548.15 975.45 545.75
Q 972.05 535.9 962.2 532.3 940.3 526.45 937.35 505.9 940.65 506.3 943.75 507.35 940.8 501 943.55 492.85 945.6 493.75 947.45 495.35 951.4 498.75 954.95 505.35 955.55 505.35 956.5 505.85 958.9 506.75 957 504.55 954.15 501.65 956.05 500.95 956.75 500.65 958.4 502.35 956.15 497.45 957.85 495.9 958.5 493.1 959.3 490.75
M 963.8 499.2
Q 964.3 498.85 964.8 498.55 969.95 498.5 974.1 510.95 973.95 506 975.15 501.65
M 957.85 495.9
Q 958.35 495.4 959.05 495.35 960.25 495.3 960.65 498.45 962.5 495.3 963.8 499.2 959.75 502.8 960.1 512.55 960.2 514.9 960.85 518.35 961.5 519 962.1 519.55
M 943.75 507.35
Q 952 510.05 959.4 516.9 960.1 517.65 960.85 518.35
M 960.1 512.55
Q 956.15 511.1 954.6 508.05 953.65 505.45 954.95 505.35
M 1015.4 521.95
Q 1017.75 531.7 1013.6 538.85 1018.55 530.8 1024.8 526.4
M 1013.45 539.1
L 1013.6 538.85
M 1015.4 521.95
L 1019.7 516.9
M 974.35 514.3
Q 974.15 512.6 974.1 510.95
M 987.6 525.95
Q 987.7 527.1 987.7 528.4
M 999.9 527.1
Q 1001.55 522.8 1004.1 524.4 1004.95 524.7 1004.9 523 1004.9 521.25 1008 519.45 1010.4 518.2 1009.35 522.25 1008.9 523.95 1009.85 524.6 1012.45 523 1015.4 521.95
M 999.9 527.1
Q 999.901171875 527.15 999.9 527.2 999.85 532.05 998.35 536.55 1003.2 528.65 1009.85 524.6
M 998.35 536.55
Q 997.45 539.45 995.85 542.25
M 985.6 518.95
Q 987.15 522.45 987.6 525.95 990.4 514.85 997.65 513.75 1000.0314453125 520.695703125 999.9 527.1
L 1003.45 514.75
M 998.3 556.15
L 993.5 558.85 989.8 550.85
M 976.4 548.15
L 975.65 545.25 980.05 549.5
M 982.9 583.8
Q 985.8 585.3 988.6 587.5 979.05 569.8 967.95 553.15
M 976.45 575.15
Q 979.4 579.6 982.9 583.8 978.15 581.4 972.95 580.9
M 993.8 589.75
L 996.1 587.65 996.05 587.6
M 992.55 579.95
L 993.8 589.75 993.6 589.95
M 996.6 593.3
Q 996.4 591.7 996.25 590.2 996.15 588.8 996.1 587.65
M 996.25 590.2
Q 1003 578.1 1013.3 567.1
M 988.6 587.5
Q 990.65 589.1 992.5 591
L 993.6 589.95 989.2 580.5
M 997.35 552.4
Q 1000.05 543.05 1007.5 536
M 964.35 581.35
Q 980.35 585.15 992.9 598.45"/>
</g>
</g>

<g transform="matrix( 1, 0, 0, 1, 7,-43) ">
<g>
<g>
<path fill="#A3A3A3" stroke="none" d="
M 96.8 657.2
Q 103.8 655.2 94.6 662.9 88.3 668.2 115.3 662.2 137.2 657.35 146.8 660.2 138.8 670.7 169.3 654.2 204.75 649.95 178.3 645.2 178.15 640.95 201.8 641.7 211.4 637.5 196.8 638.7 203.95 632.55 211.7 635.7 217.75 638 212.8 630.2 214.65 625.45 195.8 626.7 126.9 621.55 98.3 645.7
L 76.3 651.7
Q 44.5 662.45 52.3 662.7 63.95 662.35 69.8 657.7 75.7 662.7 96.8 657.2 Z"/>
</g>
</g>
</g>

<g transform="matrix( 1, 0, 0, 1, 511.75,-336.25) ">
<g>
<g>
<path fill="#B59DB6" stroke="none" d="
M -237.95 895.95
Q -245.53359375 909.1990234375 -232.2 902.8 -235.6408203125 899.81484375 -237.95 895.95
M -244.6 770.95
Q -245.340234375 771.3947265625 -246.1 771.85 -249.7361328125 774.253515625 -252.95 777.45
L -252.95 860.45
Q -259.783203125 865.616796875 -247.95 872.45 -245.6248046875 884.7 -237.95 895.95 -235.6408203125 899.81484375 -232.2 902.8 -222.3689453125 911.3046875 -203.3 912.6 -202.803515625 910.9990234375 -201.95 908.95 -202.803515625 910.9990234375 -203.3 912.6 -205.8384765625 921.009765625 -198.95 918.45 -197.1248046875 917.514453125 -195.6 916.35 -192.3794921875 913.925 -190.35 910.5 -188.429296875 907.275 -187.95 902.95 -188.429296875 907.275 -190.35 910.5 -164.536328125 899.753515625 -164.45 872.95 -166.9013671875 854.083984375 -164.45 831.95 -159.5978515625 806.8490234375 -170.95 788.95 -162.1966796875 779.98984375 -162.95 774.95 -169.5453125 759.2123046875 -181.95 774.45 -214.6216796875 760.266796875 -236.05 767.1 -238.4548828125 767.87734375 -240.75 768.9 -242.7208984375 769.834765625 -244.6 770.95
M -176.6 779.55
Q -174.5 774.1 -169.8 774.3 -170.1 783.2 -176.6 779.55
M -195.4 818.6
Q -195.4 827.4 -200.95 833.85 -201.2 834.15 -201.45 834.45 -201.9 834.9 -202.3 835.3 -209.15 842.2 -218.9 842.2 -228.7 842.2 -235.6 835.3 -237.4982421875 833.4017578125 -238.9 831.25 -242.5 825.70390625 -242.5 818.6 -242.5 808.85 -235.75 801.6 -229.05 794.3 -219.4 794.05 -209.85 793.8 -202.6 801.35 -195.4 808.85 -195.4 818.6
M -246.1 771.85
Q -245.340234375 771.3947265625 -244.6 770.95 -245.0458984375 764.612890625 -240.75 768.9 -238.4548828125 767.87734375 -236.05 767.1 -237.0728515625 755.045703125 -246.1 758.95 -253.7072265625 764.6625 -246.1 771.85 Z"/>

<path fill="#5A4258" stroke="none" d="
M -240.75 768.9
Q -245.0458984375 764.612890625 -244.6 770.95 -242.7208984375 769.834765625 -240.75 768.9
M -169.8 774.3
Q -174.5 774.1 -176.6 779.55 -170.1 783.2 -169.8 774.3 Z"/>

<path fill="#F4F8F4" stroke="none" d="
M -200.95 833.85
Q -195.4 827.4 -195.4 818.6 -195.4 808.85 -202.6 801.35 -209.85 793.8 -219.4 794.05 -229.05 794.3 -235.75 801.6 -242.5 808.85 -242.5 818.6 -242.5 825.70390625 -238.9 831.25 -237.4982421875 833.4017578125 -235.6 835.3 -228.7 842.2 -218.9 842.2 -209.15 842.2 -202.3 835.3 -201.9 834.9 -201.45 834.45 -201.2 834.15 -200.95 833.85
M -220.55 814.25
Q -218.5 814.25 -217 815.75 -215.55 817.15 -215.55 819.25 -215.55 821.35 -217 822.8 -218.5 824.3 -220.55 824.3 -222.65 824.3 -224.15 822.8 -225.6 821.35 -225.6 819.25 -225.6 817.15 -224.15 815.75 -222.65 814.25 -220.55 814.25 Z"/>

<path fill="#000000" stroke="none" d="
M -217 815.75
Q -218.5 814.25 -220.55 814.25 -222.65 814.25 -224.15 815.75 -225.6 817.15 -225.6 819.25 -225.6 821.35 -224.15 822.8 -222.65 824.3 -220.55 824.3 -218.5 824.3 -217 822.8 -215.55 821.35 -215.55 819.25 -215.55 817.15 -217 815.75
M -223.3 820.25
Q -223.3 819.6 -222.8 819.1 -222.3 818.6 -221.6 818.6 -220.95 818.6 -220.45 819.1 -219.95 819.6 -219.95 820.25 -219.95 821 -220.45 821.5 -220.95 821.9 -221.6 821.9 -222.3 821.9 -222.8 821.5 -223.3 821 -223.3 820.25 Z"/>

<path fill="#FFFFFF" stroke="none" d="
M -222.8 819.1
Q -223.3 819.6 -223.3 820.25 -223.3 821 -222.8 821.5 -222.3 821.9 -221.6 821.9 -220.95 821.9 -220.45 821.5 -219.95 821 -219.95 820.25 -219.95 819.6 -220.45 819.1 -220.95 818.6 -221.6 818.6 -222.3 818.6 -222.8 819.1 Z"/>
</g>
</g>

<g>
<path stroke="#000000" stroke-width="1" stroke-linejoin="round" stroke-linecap="round" fill="none" d="
M -246.075 771.875
Q -245.340234375 771.3947265625 -244.6 770.95 -245.0458984375 764.612890625 -240.75 768.925 -238.4548828125 767.87734375 -236.025 767.1 -237.0728515625 755.045703125 -246.1 758.95 -253.7072265625 764.6625 -246.075 771.875 -249.7361328125 774.253515625 -252.95 777.45
L -252.95 860.45
Q -259.783203125 865.616796875 -247.95 872.45 -245.6248046875 884.7 -237.95 895.95 -235.6408203125 899.81484375 -232.2 902.8 -222.3689453125 911.3046875 -203.3 912.625 -202.803515625 910.9990234375 -201.95 908.95
M -169.8 774.3
Q -174.5 774.1 -176.6 779.55 -170.1 783.2 -169.8 774.3 Z
M -236.025 767.1
Q -214.6216796875 760.266796875 -181.95 774.45 -169.5453125 759.2123046875 -162.95 774.95 -162.1966796875 779.98984375 -170.95 788.95 -159.5978515625 806.8490234375 -164.45 831.95 -166.9013671875 854.083984375 -164.45 872.95 -164.536328125 899.753515625 -190.35 910.5 -192.3794921875 913.925 -195.575 916.35 -197.1248046875 917.514453125 -198.95 918.45 -205.8384765625 921.009765625 -203.3 912.625
M -244.6 770.95
Q -242.7208984375 769.834765625 -240.75 768.925
M -195.4 818.6
Q -195.4 827.4 -200.95 833.85 -201.2 834.15 -201.45 834.45 -201.9 834.9 -202.3 835.3 -209.15 842.2 -218.9 842.2 -228.7 842.2 -235.6 835.3 -237.4982421875 833.4017578125 -238.875 831.275 -242.5 825.70390625 -242.5 818.6 -242.5 808.85 -235.75 801.6 -229.05 794.3 -219.4 794.05 -209.85 793.8 -202.6 801.35 -195.4 808.85 -195.4 818.6 Z
M -215.55 819.25
Q -215.55 821.35 -217 822.8 -218.5 824.3 -220.55 824.3 -222.65 824.3 -224.15 822.8 -225.6 821.35 -225.6 819.25 -225.6 817.15 -224.15 815.75 -222.65 814.25 -220.55 814.25 -218.5 814.25 -217 815.75 -215.55 817.15 -215.55 819.25 Z
M -219.95 820.25
Q -219.95 821 -220.45 821.5 -220.95 821.9 -221.6 821.9 -222.3 821.9 -222.8 821.5 -223.3 821 -223.3 820.25 -223.3 819.6 -222.8 819.1 -222.3 818.6 -221.6 818.6 -220.95 818.6 -220.45 819.1 -219.95 819.6 -219.95 820.25 Z
M -190.35 910.5
Q -188.429296875 907.275 -187.95 902.95
M -237.95 895.95
Q -245.53359375 909.1990234375 -232.2 902.8"/>
</g>
</g>

<g transform="matrix( 1, 0, 0, 1, 511.75,-336.25) ">
<g>
<g>
<path fill="#B59DB6" stroke="none" d="
M -169.95 847.45
L -172.95 855.45
Q -154.844140625 862.0431640625 -158.9 856.05 -162.915234375 850.04453125 -169.95 847.45 Z"/>
</g>
</g>

<g>
<path stroke="#000000" stroke-width="1" stroke-linejoin="round" stroke-linecap="round" fill="none" d="
M -172.95 855.45
Q -154.844140625 862.0431640625 -158.875 856.05 -162.915234375 850.04453125 -169.95 847.45"/>
</g>
</g>

<g transform="matrix( 1, 0, 0, 1, 511.75,-341.5) ">
<g>
<g>
<path fill="#907791" stroke="none" d="
M -230.95 862
Q -233.7515625 860.182421875 -235.6 861.3
L -234.95 866.95
Q -231.4884765625 872.04609375 -230.95 862 Z"/>

<path fill="#56404A" stroke="none" d="
M -235.6 861.3
Q -233.7515625 860.182421875 -230.95 862 -230.7685546875 858.4328125 -230.95 852.95
L -236.5 852.95 -235.6 861.3 Z"/>

<path fill="#F3E1DD" stroke="none" d="
M -236.5 852.95
L -238.95 852.95
Q -242.75 854.15 -235.6 861.3
L -236.5 852.95 Z"/>

<path fill="#E3CEB9" stroke="none" d="
M -238.95 852.95
L -236.5 852.95 -230.95 852.95
Q -223.98359375 849.90625 -232.9 845.7 -235.582421875 845.2861328125 -237.3 845.75 -242.358984375 847.2478515625 -238.95 852.95 Z"/>
</g>
</g>

<g>
<path stroke="#000000" stroke-width="1" stroke-linejoin="round" stroke-linecap="round" fill="none" d="
M -238.95 852.95
L -236.5 852.95 -230.95 852.95
Q -223.98359375 849.90625 -232.9 845.7 -235.582421875 845.2861328125 -237.3 845.775 -242.358984375 847.2478515625 -238.95 852.95 -242.75 854.15 -235.575 861.3
L -236.5 852.95
M -230.95 862
Q -230.7685546875 858.4328125 -230.95 852.95
M -235.575 861.3
L -234.95 866.95
Q -231.4884765625 872.04609375 -230.95 862"/>
</g>
</g>

<g transform="matrix( 1, 0, 0, 1, -11.5,305.15) ">
<g>
<g>
<path fill="#3A1913" stroke="none" d="
M 288.85 253
Q 290.45 252.2 291.3 249.55 285.6 227.35 281.15 226.25 286.65 239.45 288.85 253
M 278.95 218.25
L 278.95 215.6
Q 275.65 217.6 271.75 218.85
L 273.45 220.8 278.95 218.25 Z"/>

<path fill="#FFFFFF" stroke="none" d="
M 262.85 216.15
Q 263.35 214.65 263.65 213.1 246.9 213.65 235.15 207.2
L 236.5 211.85
Q 251.9 217.3 262.85 216.15
M 229.25 144.05
Q 229.05 144.35 228.8 144.65 225.4 149.4 223 155.85
L 225.75 158.35
Q 225.4 151.65 230.6 143.1 247.85 130.45 262.8 137.8 267.75 140.2 272.45 144.85 291.3 163.4 284.3 200.85 287.45 194.8 288.4 187.75 291.3 167.85 282.25 152 272.2 133.6 251.1 131.65 251 131.65 250.95 131.65
L 250.9 131.65
Q 237.15 133.5 229.25 144.05 Z"/>

<path fill="#493A32" stroke="none" d="
M 281.15 226.25
Q 280 225.95 278.95 227.05 270.35 226.55 284.45 252.55 287.1 253.85 288.85 253 286.65 239.45 281.15 226.25
M 278.95 218.25
L 273.45 220.8 278.95 227.05 278.95 218.25 Z"/>

<path fill="#6A6E77" stroke="none" d="
M 250.05 170.6
Q 242.3 173.1 243.7 179.05 245.05 185 252.15 183.2 250.1 177.65 250.05 170.6 Z"/>

<path fill="#B1BAC4" stroke="none" d="
M 250.05 170.6
Q 249.95 164.4 252 154.05 249.6 154.3 247.75 155.4 231.95 159.7 236.25 184.6 240.25 199.35 261.8 200.25 260.25 196.4 255.5 189.6 253.45 186.7 252.15 183.2 245.05 185 243.7 179.05 242.3 173.1 250.05 170.6 Z"/>

<path fill="#EFECF2" stroke="none" d="
M 262.8 137.8
Q 255.4 138.45 257.25 145.35
L 252 154.05
Q 249.95 164.4 250.05 170.6 250.1 177.65 252.15 183.2 253.45 186.7 255.5 189.6 260.25 196.4 261.8 200.25 264.6 207.15 263.65 213.1 263.35 214.65 262.85 216.15 275.25 214.75 281.95 204.85 283.25 202.9 284.3 200.85 291.3 163.4 272.45 144.85 267.75 140.2 262.8 137.8 Z"/>

<path fill="#B49D5F" stroke="none" d="
M 254.65 131.6
Q 252.95 131.55 251.1 131.65 272.2 133.6 282.25 152 291.3 167.85 288.4 187.75 287.45 194.8 284.3 200.85 283.25 202.9 281.95 204.85 275.25 214.75 262.85 216.15 251.9 217.3 236.5 211.85 241.85 216.25 248.65 218.25 281.45 222.45 289.4 196.55 297.3 170.65 283.75 148.85 274 134.35 258 131.6 256.6 131.55 255.25 131.55 254.95 131.55 254.65 131.6 Z"/>

<path fill="#5D7481" stroke="none" d="
M 230.6 143.1
Q 225.4 151.65 225.75 158.35
L 234.75 205.85 235.15 207.2
Q 246.9 213.65 263.65 213.1 264.6 207.15 261.8 200.25 240.25 199.35 236.25 184.6 231.95 159.7 247.75 155.4 249.6 154.3 252 154.05
L 257.25 145.35
Q 255.4 138.45 262.8 137.8 247.85 130.45 230.6 143.1 Z"/>

<path fill="#664324" stroke="none" d="
M 241.8 131.6
Q 240.75 131.95 239.75 132.4 225.35 137.95 219.75 152.1
L 220.25 155.85
Q 228.7 133.05 250.9 131.65 250.80625 131.603125 250.7 131.6 250.9015625 131.6015625 250.95 131.65 251 131.65 251.1 131.65 252.95 131.55 254.65 131.6 254.95 131.55 255.25 131.55 256.6 131.55 258 131.6 274 134.35 283.75 148.85 297.3 170.65 289.4 196.55 281.45 222.45 248.65 218.25 258.6 221.15 271.75 218.85 275.65 217.6 278.95 215.6 291.55 207.95 294.75 189.65 298.75 166.6 288.3 148.85 277.85 131.05 256.5 130.1 248.25 129.55 241.8 131.6
M 228.8 144.65
Q 229.05 144.35 229.25 144.05 237.15 133.5 250.9 131.65 228.7 133.05 220.25 155.85
L 234.75 205.85 225.75 158.35 223 155.85
Q 225.4 149.4 228.8 144.65 Z"/>
</g>
</g>

<g>
<path stroke="#000000" stroke-width="1" stroke-linejoin="round" stroke-linecap="round" fill="none" d="
M 225.75 158.35
L 223 155.85
Q 225.4 149.4 228.8 144.65 229.05 144.35 229.25 144.05 237.15 133.5 250.9 131.65 228.7 133.05 220.25 155.85
L 234.75 205.85 225.75 158.35 Z
M 284.3 200.85
Q 287.45 194.8 288.4 187.75 291.3 167.85 282.25 152 272.2 133.6 251.1 131.65 251 131.65 250.95 131.65
L 250.9 131.65
Q 250.80625 131.603125 250.725 131.6 250.9015625 131.6015625 250.95 131.65
M 220.25 155.85
L 219.75 152.1
Q 225.35 137.95 239.75 132.4 240.75 131.95 241.8 131.6 248.25 129.55 256.5 130.1 277.85 131.05 288.3 148.85 298.75 166.6 294.75 189.65 291.55 207.95 278.95 215.6
L 278.95 218.25 278.95 227.05
Q 280 225.95 281.15 226.25 285.6 227.35 291.3 249.55 290.45 252.2 288.85 253 287.1 253.85 284.45 252.55 270.35 226.55 278.95 227.05
L 273.45 220.8 271.75 218.85
Q 258.6 221.15 248.65 218.25 241.85 216.25 236.5 211.85
L 235.15 207.2
Q 235.05 207.15 235 207.1
L 234.75 205.85 235.15 207.2
M 251.1 131.65
Q 252.95 131.55 254.65 131.6 254.95 131.55 255.25 131.55 256.6 131.55 258 131.6 274 134.35 283.75 148.85 297.3 170.65 289.4 196.55 281.45 222.45 248.65 218.25
M 271.75 218.85
Q 275.65 217.6 278.95 215.6
M 262.85 216.15
Q 275.25 214.75 281.95 204.85 283.25 202.9 284.3 200.85
M 236.5 211.85
Q 251.9 217.3 262.85 216.15"/>
</g>
</g>

<g transform="matrix( 1, 0, 0, 1, 511.75,-336.25) ">
<g>
<g>
<path fill="#FDFAFA" stroke="none" d="
M -261.3 790.1
Q -275.8591796875 781.453125 -284.5 789.25 -288.4029296875 795.5958984375 -279 795.25 -257.5607421875 795.5384765625 -252 821.8 -251.6080078125 823.68828125 -250.15 835.85 -250.26953125 845.598828125 -246 843 -242.00078125 839.02109375 -244.35 818.9 -246.6978515625 798.8126953125 -261.3 790.1 Z"/>
</g>
</g>
</g>

<g transform="matrix( 1, 0, 0, 1, 27,-18.5) ">
<g>
<g>
<path fill="#A4CCD4" stroke="none" d="
M 145 618.85
Q 140.45 620 136.25 620.85 139.4 631.45 145.3 629.7 148.5 627.8 147.75 618.1 146.4 618.5 145 618.85
M 73.95 578.1
Q 67.85 573.8 64.3 579.6 62.45 587.05 74.85 585.6 74.2 581.75 73.95 578.1 Z"/>

<path fill="#FFFFFF" stroke="none" d="
M 193.4 527.65
Q 190.15 527.85 186.5 527.1
L 187.6 540.2 194.3 540.2 193.4 527.65
M 198.35 526.6
Q 197.7 526.85 197.05 527.05 195.3 527.5 193.4 527.65
L 194.3 540.2 198.35 537.7 198.35 526.6
M 160.65 508.35
Q 159.95 508.35 159.45 508.85 158.95 509.35 158.95 510 158.95 510.75 159.45 511.25 159.95 511.65 160.65 511.65 161.3 511.65 161.8 511.25 162.3 510.75 162.3 510 162.3 509.35 161.8 508.85 161.3 508.35 160.65 508.35 Z"/>

<path fill="#D8C8B0" stroke="none" d="
M 190.85 512.75
L 186.8 511.25
Q 183.55 511.15 180.3 514.7 174.1 523.95 184.8 526.7 185.65 526.95 186.5 527.1 190.15 527.85 193.4 527.65 195.3 527.5 197.05 527.05 197.7 526.85 198.35 526.6 202.55 524.9 203.15 520.05 203.75 514.45 200 512.1 196.05 510.2 190.85 512.75 192.3 513.8 193.8 515.7 192.3 513.8 190.85 512.75 Z"/>

<path fill="#3C4738" stroke="none" d="
M 195.7 505.9
Q 190.1 503.45 186.8 511.25 188.8 511.3 190.85 512.75 196.05 510.2 200 512.1 198.5 507.95 195.7 505.9 Z"/>

<path fill="#A2CED7" stroke="none" d="
M 172.8 468.45
Q 169.5 466.3 165.7 464.4 163.15 463.25 160.25 462.5 148.05 459.2 129.8 462.25 131 464.55 132.2 467.4 131 464.55 129.8 462.25 124.35 451.7 118.2 451.9 103.75 452.5 109.65 468.9 111.55 474.3 115.7 481.4 111.55 474.3 109.65 468.9 94.7 483.85 95.95 503.5 97.15 523.1 82.65 543.85 72.5 558.3 73.95 578.1 74.2 581.75 74.85 585.6 75.7 590.75 77.3 596.2 80.75 603.2 88.15 608.95 88.45 605.5 89.3 601.7 88.45 605.5 88.15 608.95 87.2 619.9 91.8 627.7 98.8 634.45 102.75 619.8 103.9 615.45 104.8 609.2 103.9 615.45 102.75 619.8 113.95 625.15 136.25 620.85 140.45 620 145 618.85 146.4 618.5 147.75 618.1 148.45 617.85 149.1 617.65 174.6 608.75 182.95 573.2 187.25 554.9 194.3 540.2
L 187.6 540.2 186.5 527.1
Q 185.65 526.95 184.8 526.7 174.1 523.95 180.3 514.7 183.55 511.15 186.8 511.25 190.1 503.45 195.7 505.9 193.05 481.75 172.8 468.45
M 169.3 518.7
Q 168.85 519.15 168.45 519.55 161.6 526.45 151.85 526.45 142.05 526.45 135.15 519.55 128.25 512.65 128.25 502.85 128.25 493.1 135 485.85 141.7 478.55 151.35 478.3 160.9 478.05 168.15 485.6 175.35 493.1 175.35 502.85 175.35 511.65 169.8 518.1 169.55 518.4 169.3 518.7
M 116.2 467.9
Q 111.95 465.25 118.2 460.4
L 122.6 469.6 124.2 472.9 122.6 469.6
Q 119.7 465.1 116.2 467.9
M 172.8 468.45
Q 175.65 459.45 170.8 456.2 165.55 453.45 160.25 462.5 163.15 463.25 165.7 464.4 169.5 466.3 172.8 468.45 Z"/>

<path fill="#476A6E" stroke="none" d="
M 118.2 460.4
Q 111.95 465.25 116.2 467.9 119.7 465.1 122.6 469.6
L 118.2 460.4 Z"/>

<path fill="#F4F8F4" stroke="none" d="
M 168.45 519.55
Q 168.85 519.15 169.3 518.7 169.55 518.4 169.8 518.1 175.35 511.65 175.35 502.85 175.35 493.1 168.15 485.6 160.9 478.05 151.35 478.3 141.7 478.55 135 485.85 128.25 493.1 128.25 502.85 128.25 512.65 135.15 519.55 142.05 526.45 151.85 526.45 161.6 526.45 168.45 519.55
M 163.75 507
Q 165.2 508.4 165.2 510.5 165.2 512.6 163.75 514.05 162.25 515.55 160.2 515.55 158.1 515.55 156.6 514.05 155.15 512.6 155.15 510.5 155.15 508.4 156.6 507 158.1 505.5 160.2 505.5 162.25 505.5 163.75 507 Z"/>

<path fill="#080806" stroke="none" d="
M 165.2 510.5
Q 165.2 508.4 163.75 507 162.25 505.5 160.2 505.5 158.1 505.5 156.6 507 155.15 508.4 155.15 510.5 155.15 512.6 156.6 514.05 158.1 515.55 160.2 515.55 162.25 515.55 163.75 514.05 165.2 512.6 165.2 510.5
M 159.45 508.85
Q 159.95 508.35 160.65 508.35 161.3 508.35 161.8 508.85 162.3 509.35 162.3 510 162.3 510.75 161.8 511.25 161.3 511.65 160.65 511.65 159.95 511.65 159.45 511.25 158.95 510.75 158.95 510 158.95 509.35 159.45 508.85 Z"/>
</g>
</g>

<g>
<path stroke="#000000" stroke-width="1" stroke-linejoin="round" stroke-linecap="round" fill="none" d="
M 73.95 578.1
Q 72.5 558.3 82.65 543.85 97.15 523.1 95.95 503.5 94.7 483.85 109.65 468.9 103.75 452.5 118.2 451.9 124.35 451.7 129.8 462.25 148.05 459.2 160.25 462.5 165.55 453.45 170.8 456.2 175.65 459.45 172.8 468.45 193.05 481.75 195.7 505.9 198.5 507.95 200 512.1 203.75 514.45 203.15 520.05 202.55 524.9 198.35 526.6
L 198.35 537.7 194.3 540.2
Q 187.25 554.9 182.95 573.2 174.6 608.75 149.1 617.65 148.45 617.85 147.75 618.1 148.5 627.8 145.3 629.7 139.4 631.45 136.25 620.85 113.95 625.15 102.75 619.8 98.8 634.45 91.8 627.7 87.2 619.9 88.15 608.95 80.75 603.2 77.3 596.2 75.7 590.75 74.85 585.6 62.45 587.05 64.3 579.6 67.85 573.8 73.95 578.1 74.2 581.75 74.85 585.6
M 172.8 468.45
Q 169.5 466.3 165.7 464.4 163.15 463.25 160.25 462.5
M 195.7 505.9
Q 190.1 503.45 186.8 511.25
L 190.85 512.75
Q 188.8 511.3 186.8 511.25 183.55 511.15 180.3 514.7 174.1 523.95 184.8 526.7 185.65 526.95 186.5 527.1 190.15 527.85 193.4 527.65 195.3 527.5 197.05 527.05 197.7 526.85 198.35 526.6
M 200 512.1
Q 196.05 510.2 190.85 512.75 192.3 513.8 193.8 515.7
M 175.35 502.85
Q 175.35 511.65 169.8 518.1 169.55 518.4 169.3 518.7 168.85 519.15 168.45 519.55 161.6 526.45 151.85 526.45 142.05 526.45 135.15 519.55 128.25 512.65 128.25 502.85 128.25 493.1 135 485.85 141.7 478.55 151.35 478.3 160.9 478.05 168.15 485.6 175.35 493.1 175.35 502.85 Z
M 165.2 510.5
Q 165.2 512.6 163.75 514.05 162.25 515.55 160.2 515.55 158.1 515.55 156.6 514.05 155.15 512.6 155.15 510.5 155.15 508.4 156.6 507 158.1 505.5 160.2 505.5 162.25 505.5 163.75 507 165.2 508.4 165.2 510.5 Z
M 194.3 540.2
L 187.6 540.2 186.5 527.1
M 193.4 527.65
L 194.3 540.2
M 122.6 469.6
Q 119.7 465.1 116.2 467.9 111.95 465.25 118.2 460.4
L 122.6 469.6 124.2 472.9
M 115.7 481.4
Q 111.55 474.3 109.65 468.9
M 129.8 462.25
Q 131 464.55 132.2 467.4
M 162.3 510
Q 162.3 510.75 161.8 511.25 161.3 511.65 160.65 511.65 159.95 511.65 159.45 511.25 158.95 510.75 158.95 510 158.95 509.35 159.45 508.85 159.95 508.35 160.65 508.35 161.3 508.35 161.8 508.85 162.3 509.35 162.3 510 Z
M 136.25 620.85
Q 140.45 620 145 618.85 146.4 618.5 147.75 618.1
M 88.15 608.95
Q 88.45 605.5 89.3 601.7
M 102.75 619.8
Q 103.9 615.45 104.8 609.2"/>
</g>
</g>

<g transform="matrix( 1, 0, 0, 1, -11.5,305.15) ">
<g>
<g>
<path fill="#848286" stroke="none" d="
M 182.8 285.05
L 184.8 288.05 202.85 234 201.4 230.5 182.8 285.05
M 201.4 230.5
L 199.8 227.05 180.8 282.05 182.8 285.05 201.4 230.5
M 137.8 269.05
L 140.05 272.55 182.8 285.05 180.8 282.05 137.8 269.05
M 140.05 272.55
L 142.3 275.95 184.8 288.05 182.8 285.05 140.05 272.55 Z"/>

<path fill="#FFF9FB" stroke="none" d="
M 157.3 214.55
L 137.8 269.05 180.8 282.05 199.8 227.05 157.3 214.55 Z"/>
</g>
</g>

<g>
<path stroke="#000000" stroke-width="1" stroke-linejoin="round" stroke-linecap="round" fill="none" d="
M 140.05 272.55
L 142.3 275.95 184.8 288.05 182.8 285.05 140.05 272.55 137.8 269.05 157.3 214.55 199.8 227.05 201.4 230.5 202.85 234 184.8 288.05
M 180.8 282.05
L 182.8 285.05 201.4 230.5
M 199.8 227.05
L 180.8 282.05 137.8 269.05"/>
</g>
</g>

<g transform="matrix( 1, 0, 0, 1, -11.5,305.15) ">
<g>
<path stroke="#000000" stroke-width="1" stroke-linejoin="round" stroke-linecap="round" fill="none" d="
M 157.45 241.05
L 157.85 242.5
M 155.75 243.55
L 156.8 243.95 155.15 248.2 156.85 247.7
M 158.3 244.35
Q 159.75 244.35 160.55 242.15
L 163.15 243.05
Q 162.05 245.35 163.8 245.65
M 156.15 249.25
Q 158 249.35 159.65 248.75 158.8 247.35 158.4 245.5
L 162.65 246.85
Q 161.25 248.1 159.65 248.75 160.5 250.1 161.8 251.1
M 160.65 256.35
L 160.9 257.05
M 163.55 259.95
L 164.05 258.85 156.8 256.2 156.35 257.2
M 158 258.3
L 158.9 259.4
M 154.15 262.95
Q 156.95 263.6 158.65 262.45 158.8 262.3 159 262.15
L 154.55 260.5
M 158.65 262.45
L 161.8 265.6
M 159 262.15
Q 160.25 261.05 160.8 258.85
M 156.8 259.2
L 157.7 260.3
M 172.3 231.4
L 173.1 232.9
M 174.7 232.4
L 176.3 233 179.45 234.1
M 174.05 234
L 175.45 234.5 176.3 233
M 171.7 238.55
L 170.5 238.9 170.3 238.95 170.35 238.85 171.9 234.6 170.75 234.2
M 168.9 235.1
Q 168.65 236 168 236.5 167.25 236.95 166.55 236.8 165.75 236.55 165.4 235.8 165 235.05 165.25 234.1 165.45 233.25 166.25 232.7 166.3 232.65 166.4 232.6 166.95 232.2 167.7 232.45 168.4 232.6 168.8 233.4 168.8 233.45 168.85 233.5 169.1 234.25 168.9 235.1 Z
M 170.35 238.85
L 170.5 238.9
M 166 244.05
L 166.6 245.3
M 164.65 246.6
L 165.9 247.05 164.3 251.6 166.35 251.05
M 175.45 234.5
L 178.55 235.6 177.6 237.2 178.65 237.55
M 173.15 235.85
L 174.4 236.25 175.45 234.5
M 172.7 239.65
L 176.7 240.95 177.3 239.2 173.35 237.85 172.7 239.65 172.45 240.2
M 185.6 244.6
L 185.75 244.05 179.9 242.05 179.65 242.6
M 174.4 236.25
L 177.6 237.2
M 185.75 244.05
L 186.4 242.1 180.55 240.25 179.9 242.05
M 176.45 241.55
L 176.7 240.95
M 164 229.25
Q 159.3 226.75 158.3 231.6 158.1 235.05 162.2 235.2
L 163.3 232.6 161.3 231.75
M 185.05 235
L 185.2 236.05
M 181 235.5
L 188.85 238.25
M 181.55 237.1
L 187.6 239.2
M 180.95 238.65
L 187.1 240.75
M 172.9 252.25
L 178.9 254.35
M 182.55 250.85
L 176.3 248.9 175.4 250.75 181.25 252.9
Q 180.1 258.25 176.15 255.9
M 167.85 247.75
L 170.3 248.6 171.35 245.65
M 168.4 254
L 170.3 248.6 172.85 249.55
M 176.3 248.9
L 177.1 247.25
M 159 262.15
L 162.9 263.6"/>
</g>
</g>

<g transform="matrix( 0.977935791015625, 0.063323974609375, -0.063323974609375, 0.977935791015625, 9.3,300.95) ">
<g transform="matrix( 1.018280029296875, -0.0659332275390625, 0.0659332275390625, 1.018280029296875, -29.3,-305.8) ">
<path stroke="#000000" stroke-width="1" stroke-linejoin="round" stroke-linecap="round" fill="none" d="
M 155.58187561035157 564.7204162597657
L 156.92248992919923 565.2491409301758 158.26627044677736 565.7289688110352
M 160.75014953613282 567.5592681884766
Q 159.38453369140626 572.7247344970704 155.58781890869142 572.9699050903321
M 154.76891021728517 567.4174758911133
L 156.0180633544922 567.842074584961 156.92248992919923 565.2491409301758
M 156.0180633544922 567.842074584961
L 157.31294708251954 568.3187362670899
M 156.0180633544922 567.842074584961
L 154.93211822509767 570.9633743286133 156.54571228027345 571.0678588867188
M 153.5630081176758 570.8747207641602
L 154.93211822509767 570.9633743286133
M 160.26820068359376 571.2106964111329
Q 158.8653076171875 573.9186584472657 160.2122543334961 574.3495895385743 161.5592010498047 574.7805206298829 161.9050033569336 573.2316543579102
M 157.68793182373048 570.1106826782227
L 159.30260162353517 565.6487686157227 163.337109375 567.03935546875 161.75867156982423 571.7000228881836"/>
</g>
</g>

<g transform="matrix( 1, 0, 0, 1, 511.75,-336.25) ">
<g>
<g>
<path fill="#A2CED7" stroke="none" d="
M -311.45 897.45
L -316.95 883.95
Q -339.0076171875 894.5833984375 -334.95 900.95 -330.0958984375 907.9443359375 -311.45 897.45 Z"/>
</g>
</g>

<g>
<path stroke="#000000" stroke-width="1" stroke-linejoin="round" stroke-linecap="round" fill="none" d="
M -311.45 897.45
Q -330.0958984375 907.9443359375 -334.95 900.95 -339.0076171875 894.5833984375 -316.95 883.95"/>
</g>
</g>

<g transform="matrix( 1, 0, 0, 1, 511.75,-336.25) ">
<g>
<g>
<path fill="#A2CED7" stroke="none" d="
M -378.45 872.95
L -391.45 876.45
Q -382.93828125 897.605859375 -374.15 897.2 -365.3015625 896.839453125 -378.45 872.95 Z"/>
</g>
</g>

<g>
<path stroke="#000000" stroke-width="1" stroke-linejoin="round" stroke-linecap="round" fill="none" d="
M -391.45 876.45
Q -382.93828125 897.605859375 -374.125 897.225 -365.3015625 896.839453125 -378.45 872.95"/>
</g>
</g>

<g transform="matrix( 0.63995361328125, 0, 0, 0.63995361328125, 194.7,-59.05) ">
<g>
<g>
<path fill="#456C37" stroke="none" d="
M 210.7 464.6
Q 212.55 485.75 223.2 477.1
L 228 469.45
Q 210.5 476.6 218.15 460.6 199.15 462.2 205.15 452.6 213.95 448.15 226.7 450.85 255.5 456.55 244.4 475.4 233.3 494.2 204.65 500.6 171.15 512.9 152.45 478.9 133.7 444.85 195.2 400.15 184.4 391.85 156.35 424.15 128.25 456.4 147.8 488.15 167.4 519.9 211.2 508.1 265.2 490.85 254.15 460.1 240.05 437.25 202.2 448.1 183.3 457.1 210.7 464.6 Z"/>
</g>
</g>
</g>

<g transform="matrix( 1, 0, 0, 1, 320.85,104.8) ">
<g>
<g>
<path fill="#EDA49A" stroke="none" d="
M 132.55 426.95
Q 159.0345703125 438.7333984375 182.9 407.95 171.95 394.75 132.55 426.95 Z"/>
</g>
</g>
</g>

<g transform="matrix( 0.7127685546875, 0, 0, 0.7127685546875, 1012.7,346.15) ">
<g>
<g>
<path fill="#9ACCD5" stroke="none" d="
M -563.25 178.6
Q -563.7 166.65 -562.85 154.65 -580.4 137.4 -582.1 150.55 -581.55 164.45 -563.25 178.6
M -384.6 94.5
Q -381.2 88.45 -383.6 80.5 -388.9 67.85 -402.55 70.3 -411.15 71.6 -418.15 82.15 -419.95 84.75 -421.6 88 -419.95 84.75 -418.15 82.15 -420.9 77.05 -430.35 73.65 -426.45 83.1 -426.45 94.35 -426.45 114.7 -439.45 129.15 -452.45 143.65 -470.8 143.65 -489.2 143.65 -502.2 129.15 -515.15 114.7 -515.15 94.35 -515.15 78 -506.85 65.5 -505.05 62.75 -502.8 60.2 -512.6 61.75 -524.05 67.65 -534.75 73.15 -546.1 86.55 -542.15 86.55 -537.6 90.55 -531.75 96.7 -535.1 100.5 -518.9 116.5 -527.65 123.55 -535.5 127.8 -545.05 123.5 -545.9 148.15 -552.65 143.55 -558.3 140.25 -559.55 128.3 -561.95 141.5 -562.85 154.65 -563.7 166.65 -563.25 178.6 -561.8 217.65 -546.9 256.1 -546.9 256.2 -546.8 256.35
L -542.1 265.55 -546.8 256.35
Q -546 258.45 -545.15 260.55 -559.35 271.9 -557.1 288.05 -555.25 301.75 -546.6 288.55 -541.75 283.2 -535.1 281.55 -536.65 279.8 -537.1 278.4 -536.65 279.8 -535.1 281.55 -507.95 321.1 -463.7 326.5 -472.25 324 -480.8 317.2 -472.25 324 -463.7 326.5 -463.35 326.5 -463.05 326.55 -457.05 327.45 -451.45 327.8 -428.7 329.15 -412.95 321.25 -415.1 319.1 -417.1 316.55 -415.1 319.1 -412.95 321.25 -412.75 321.15 -412.6 321.05 -412.75 321.15 -412.95 321.25 -401.05 332.95 -383.1 334.05 -364.4 333.9 -366.05 320.05 -369.2 310.25 -380.05 310.05 -382.55 309.25 -384.8 308.15 -390.3 305.45 -394.1 301.05 -390.3 305.45 -384.8 308.15 -359.8 267.5 -378.55 230 -387.8 214.7 -391.1 191.5 -395.9 193.3 -399.6 191.55 -395.9 193.3 -391.1 191.5 -370.2 183.5 -365.55 166.55 -363.8 150.6 -381.55 158.05
L -393.6 163.1 -399.6 165.55 -393.6 163.1
Q -389.45 132.75 -401.5 107.8 -405 109.1 -409.1 110 -405 109.1 -401.5 107.8 -389.9 103.4 -384.6 94.5
M -407.6 95.5
Q -387.1 83.3 -399.1 79.5 -387.1 83.3 -407.6 95.5 Z"/>

<path fill="#F0F7FC" stroke="none" d="
M -556.15 116.05
Q -558.35 113.2 -559.4 110.45 -560.1 118.5 -559.8 124.65 -559.75 126.55 -559.55 128.3 -558.3 140.25 -552.65 143.55 -545.9 148.15 -545.05 123.5 -548.95 121.75 -553.15 118.5 -556.05 128.9 -553.15 131.55 -556.05 128.9 -553.15 118.5 -554.65 117.35 -556.15 116.05 Z"/>

<path fill="#CACDB6" stroke="none" d="
M -535.1 100.5
Q -539.9 104.2 -545.45 102.4 -554.2 99.45 -553.65 93.15 -560.45 99.05 -560.4 105.55 -560.4 107.95 -559.4 110.45 -558.35 113.2 -556.15 116.05 -554.65 117.35 -553.15 118.5 -548.95 121.75 -545.05 123.5 -535.5 127.8 -527.65 123.55 -518.9 116.5 -535.1 100.5 Z"/>

<path fill="#76826E" stroke="none" d="
M -553.1 90.55
Q -553.55 91.9 -553.65 93.15 -554.2 99.45 -545.45 102.4 -539.9 104.2 -535.1 100.5 -531.75 96.7 -537.6 90.55 -542.15 86.55 -546.1 86.55 -551.1 86.6 -553.1 90.55 Z"/>

<path fill="#FFFFFF" stroke="none" d="
M -553.65 93.15
Q -553.55 91.9 -553.1 90.55 -551.1 86.6 -546.1 86.55 -534.75 73.15 -524.05 67.65 -525.2 47.85 -540.15 48 -561.75 46.75 -569.05 71.9 -576.35 97.05 -560.4 105.55 -560.45 99.05 -553.65 93.15
M -543.5 64.4
Q -542.55 65.9 -542.55 67.8 -542.55 69.7 -543.5 71.25 -543.95 71.95 -544.6 72.6 -546.55 74.6 -549.35 74.6 -552.2 74.6 -554.2 72.6 -556.2 70.65 -556.2 67.8 -556.2 65 -554.2 63 -552.2 61 -549.35 61 -546.55 61 -544.6 63 -543.95 63.65 -543.5 64.4
M -549.35 64.15
Q -549.85 63.65 -550.6 63.65 -551.25 63.65 -551.8 64.15 -552.25 64.65 -552.25 65.35 -552.25 66.05 -551.8 66.55 -551.25 67.05 -550.6 67.05 -549.85 67.05 -549.35 66.55 -548.9 66.05 -548.9 65.35 -548.9 64.65 -549.35 64.15
M -426.45 94.35
Q -426.45 83.1 -430.35 73.65 -433.6 65.95 -439.45 59.45 -452.45 45 -470.8 45 -489.2 45 -502.2 59.45 -502.5 59.8 -502.8 60.2 -505.05 62.75 -506.85 65.5 -515.15 78 -515.15 94.35 -515.15 114.7 -502.2 129.15 -489.2 143.65 -470.8 143.65 -452.45 143.65 -439.45 129.15 -426.45 114.7 -426.45 94.35
M -484.8 66.3
Q -481.5 63 -476.85 63 -472.2 63 -468.9 66.3 -467.8 67.4 -467.1 68.6 -465.6 71.1 -465.6 74.25 -465.6 77.4 -467.1 79.9 -467.8 81.1 -468.9 82.2 -472.2 85.5 -476.85 85.5 -481.5 85.5 -484.8 82.2 -488.1 78.9 -488.1 74.25 -488.1 69.6 -484.8 66.3
M -476.8 72.15
Q -476 71.35 -476 70.15 -476 69 -476.8 68.2 -477.65 67.35 -478.8 67.35 -479.95 67.35 -480.8 68.2 -481.6 69 -481.6 70.15 -481.6 71.35 -480.8 72.15 -479.95 73 -478.8 73 -477.65 73 -476.8 72.15 Z"/>

<path fill="#000000" stroke="none" d="
M -542.55 67.8
Q -542.55 65.9 -543.5 64.4 -543.95 63.65 -544.6 63 -546.55 61 -549.35 61 -552.2 61 -554.2 63 -556.2 65 -556.2 67.8 -556.2 70.65 -554.2 72.6 -552.2 74.6 -549.35 74.6 -546.55 74.6 -544.6 72.6 -543.95 71.95 -543.5 71.25 -542.55 69.7 -542.55 67.8
M -550.6 63.65
Q -549.85 63.65 -549.35 64.15 -548.9 64.65 -548.9 65.35 -548.9 66.05 -549.35 66.55 -549.85 67.05 -550.6 67.05 -551.25 67.05 -551.8 66.55 -552.25 66.05 -552.25 65.35 -552.25 64.65 -551.8 64.15 -551.25 63.65 -550.6 63.65
M -476.85 63
Q -481.5 63 -484.8 66.3 -488.1 69.6 -488.1 74.25 -488.1 78.9 -484.8 82.2 -481.5 85.5 -476.85 85.5 -472.2 85.5 -468.9 82.2 -467.8 81.1 -467.1 79.9 -465.6 77.4 -465.6 74.25 -465.6 71.1 -467.1 68.6 -467.8 67.4 -468.9 66.3 -472.2 63 -476.85 63
M -476 70.15
Q -476 71.35 -476.8 72.15 -477.65 73 -478.8 73 -479.95 73 -480.8 72.15 -481.6 71.35 -481.6 70.15 -481.6 69 -480.8 68.2 -479.95 67.35 -478.8 67.35 -477.65 67.35 -476.8 68.2 -476 69 -476 70.15 Z"/>
</g>
</g>

<g transform="matrix( 1.4029693603515625, 0, 0, 1.4029693603515625, -1420.75,-485.6) ">
<path stroke="#000000" stroke-width="1" stroke-linejoin="round" stroke-linecap="round" fill="none" d="
M 726.5234252929688 422.9864501953125
Q 734.7915405273438 419.8502685546875 738.5692138671875 413.5066284179687 740.9926269531251 409.19437866210933 739.281982421875 403.5278686523437 735.5043090820313 394.51134643554684 725.7750183105469 396.25762939453125 719.6452087402345 397.18422851562497 714.655828857422 404.7039367675781 713.3728454589844 406.5571350097656 712.19677734375 408.8736328125
M 673.42216796875 396.1507141113281
Q 673.42216796875 397.0060363769531 672.851953125 397.5762512207031 672.2460998535157 398.1821044921875 671.426416015625 398.1821044921875 670.6067321777344 398.1821044921875 670.00087890625 397.5762512207031 669.4306640625 397.0060363769531 669.4306640625 396.1507141113281 669.4306640625 395.3310302734375 670.00087890625 394.76081542968745 670.6067321777344 394.1549621582031 671.426416015625 394.1549621582031 672.2460998535157 394.1549621582031 672.851953125 394.76081542968745 673.42216796875 395.3310302734375 673.42216796875 396.1507141113281 Z
M 680.8349609375 399.07306518554685
Q 680.8349609375 401.3182861328125 679.7658081054688 403.10020751953124 679.2668701171875 403.9555297851562 678.4828247070313 404.73957519531245 676.1306884765626 407.0917114257812 672.8163146972656 407.0917114257812 669.5019409179688 407.0917114257812 667.1498046875 404.73957519531245 664.7976684570312 402.38743896484374 664.7976684570312 399.07306518554685 664.7976684570312 395.75869140624997 667.1498046875 393.40655517578125 669.5019409179688 391.0544189453125 672.8163146972656 391.0544189453125 676.1306884765626 391.0544189453125 678.4828247070313 393.40655517578125 679.2668701171875 394.1906005859375 679.7658081054688 395.04592285156247 680.8349609375 396.8278442382812 680.8349609375 399.07306518554685 Z
M 705.9600524902344 398.64540405273436
Q 712.6957153320313 401.0688171386719 714.655828857422 404.7039367675781
M 705.9600524902344 398.64540405273436
Q 708.7398498535157 405.3810668945312 708.7398498535157 413.3997131347656 708.7398498535157 427.9045532226562 699.4738586425782 438.2040588378906 690.2078674316407 448.53920288085936 677.128564453125 448.53920288085936 664.0136230468751 448.53920288085936 654.7476318359376 438.2040588378906 645.5172790527345 427.9045532226562 645.5172790527345 413.3997131347656 645.5172790527345 401.745947265625 651.4332580566406 392.8363403320312 652.7162414550781 390.8762268066406 654.319970703125 389.05866699218745 647.3348388671875 390.1634582519531 639.1736389160158 394.36879272460936 631.5470153808594 398.2890197753906 623.4570922851562 407.8401184082031 626.272528076172 407.8401184082031 629.515625 410.6911926269531 633.6853210449219 415.0747192382812 631.2975463867188 417.7832397460937 642.8443969726563 429.1875366210937 636.6076721191407 434.2125549316406 631.0124389648438 437.2418212890625 624.2054992675783 434.1769165039062 623.5996459960938 451.7466613769531 618.7884582519532 448.4679260253906 614.7613159179689 446.11578979492185 613.8703552246095 437.59820556640625 612.1597106933593 447.0067504882812 611.5182189941406 456.37965698242186 610.9123657226562 464.93287963867186 611.2331115722657 473.45046386718747 612.2666259765626 501.28407592773436 622.8868774414063 528.6900268554688 622.8868774414063 528.7613037109375 622.9581542968751 528.8682189941406
L 626.3081665039062 535.4256896972656
M 654.319970703125 389.05866699218745
Q 654.5338012695313 388.7735595703125 654.7476318359376 388.52409057617183 664.0136230468751 378.2245849609375 677.128564453125 378.2245849609375 690.2078674316407 378.2245849609375 699.4738586425782 388.52409057617183 703.6435546875 393.1570861816406 705.9600524902344 398.64540405273436
M 733.9362182617188 482.6451782226562
Q 748.8330810546876 476.9430297851562 752.1474548339844 464.8616027832031 753.3947998046875 453.49294433593747 740.7431579589844 458.8030700683594
L 732.154296875 462.4025512695312 727.877685546875 464.1488342285156
M 727.877685546875 482.6808166503906
Q 730.5149291992188 483.92816162109375 733.9362182617188 482.6451782226562 736.2883544921875 499.1814086914062 742.8814636230469 510.086767578125 756.2458740234375 536.8155883789062 738.42666015625 565.789630126953 740.0303894042969 566.5736755371094 741.8123107910156 567.1438903808594 749.5458496093751 567.2864440917969 751.7910705566406 574.2715759277344 752.9671386718751 584.1434204101562 739.6383666992188 584.2503356933594 726.8441711425781 583.4662902832031 718.362225341797 575.1268981933594 707.1361206054688 580.7577697753906 690.9206359863282 579.7955322265625 686.5727478027344 580.1162780761719 682.1892211914063 578.8689331054687 650.6492126464844 575.0199829101563 631.2975463867188 546.8299865722656 626.5576354980469 548.0060546875 623.1007080078125 551.8193664550781 616.9352600097657 561.2279113769531 615.6166381835938 551.4629821777344 614.0129089355469 539.9517700195312 624.1342224121095 531.8618469238281 623.528369140625 530.3650329589843 622.9581542968751 528.8682189941406
M 726.5234252929688 422.9864501953125
Q 735.1122863769532 440.7700256347656 732.154296875 462.4025512695312
M 722.175537109375 414.2193969726562
Q 736.7872924804688 405.52362060546875 728.2340698242188 402.8151000976562
M 721.1063842773438 424.554541015625
Q 724.0287353515625 423.9130493164062 726.5234252929688 422.9864501953125
M 625.987420654297 394.4757080078125
Q 625.987420654297 395.8299682617187 625.3102905273438 396.93475952148435 624.9895446777343 397.4336975097656 624.5262451171875 397.89699707031247 623.136346435547 399.32253417968747 621.1405944824219 399.32253417968747 619.1092041015625 399.32253417968747 617.6836669921875 397.89699707031247 616.2581298828125 396.50709838867186 616.2581298828125 394.4757080078125 616.2581298828125 392.4799560546875 617.6836669921875 391.0544189453125 619.1092041015625 389.6288818359375 621.1405944824219 389.6288818359375 623.136346435547 389.6288818359375 624.5262451171875 391.0544189453125 624.9895446777343 391.51771850585936 625.3102905273438 392.052294921875 625.987420654297 393.12144775390624 625.987420654297 394.4757080078125 Z
M 621.4613403320313 392.7294250488281
Q 621.4613403320313 393.2283630371094 621.1405944824219 393.5847473144531 620.7842102050781 393.9411315917969 620.2496337890625 393.9411315917969 619.7863342285157 393.9411315917969 619.3943115234376 393.5847473144531 619.0735656738282 393.2283630371094 619.0735656738282 392.7294250488281 619.0735656738282 392.23048706054686 619.3943115234376 391.8741027832031 619.7863342285157 391.51771850585936 620.2496337890625 391.51771850585936 620.7842102050781 391.51771850585936 621.1405944824219 391.8741027832031 621.4613403320313 392.23048706054686 621.4613403320313 392.7294250488281 Z
M 618.0756896972657 412.5443908691406
Q 618.1469665527345 411.65343017578124 618.4677124023438 410.6911926269531 619.8932495117188 407.87575683593747 623.4570922851562 407.8401184082031
M 613.2645019531251 421.3827209472656
Q 601.8958435058594 415.3241882324219 607.0990539550783 397.39805908203124 612.3022644042969 379.4719299316406 627.698065185547 380.362890625 638.353955078125 380.25597534179684 639.1736389160158 394.36879272460936
M 618.0756896972657 412.5443908691406
Q 617.6836669921875 417.03483276367183 623.9203918457031 419.1375 627.8762573242188 420.42048339843745 631.2975463867188 417.7832397460937
M 613.9772705078126 424.87528686523433
Q 614.7256774902344 426.83540039062495 616.293768310547 428.8667907714844 617.3629211425782 429.7933898925781 618.4320739746095 430.6130737304687 621.4257019042968 432.9295715332031 624.2054992675783 434.1769165039062
M 613.2645019531251 421.3827209472656
Q 613.2645019531251 423.0933654785156 613.9772705078126 424.87528686523433 613.4783325195312 430.6130737304687 613.6921630859376 434.99660034179686 613.7278015136719 436.3508605957031 613.8703552246095 437.59820556640625
M 618.4320739746095 439.9147033691406
Q 616.3650451660158 438.02586669921874 618.4320739746095 430.6130737304687
M 611.5182189941406 456.37965698242186
Q 599.0091308593751 444.0843994140625 597.7974243164062 453.4573059082031 598.1894470214845 463.36478881835933 611.2331115722657 473.45046386718747
M 618.0756896972657 412.5443908691406
Q 613.2288635253906 416.7497253417969 613.2645019531251 421.3827209472656
M 629.8720092773438 544.5847656249999
Q 630.1927551269532 545.5826416015625 631.2975463867188 546.8299865722656
M 715.4042358398438 571.7768859863281
Q 716.8297729492188 573.5944458007813 718.362225341797 575.1268981933594 718.5047790527344 575.0556213378906 718.6116943359375 574.9843444824219
M 682.1892211914063 578.8689331054687
Q 682.4386901855469 578.8689331054687 682.6525207519531 578.9045715332031 686.9291320800781 579.5460632324218 690.9206359863282 579.7955322265625
M 670.00087890625 572.240185546875
Q 676.0950500488282 577.08701171875 682.1892211914063 578.8689331054687
M 731.7979125976562 560.7289733886719
Q 734.5064331054688 563.8651550292968 738.42666015625 565.789630126953"/>
</g>
</g>

<g transform="matrix( 1, 0, 0, 1, 70,-38) ">
<g>
<path stroke="#000000" stroke-width="2" stroke-linejoin="round" stroke-linecap="round" fill="none" d="
M 679.4 498.7
Q 709.7869140625 409.4951171875 742.975 393.6 776.1630859375 377.71328125 855.675 374.8 935.185546875 371.874609375 1007.8 227.95"/>
</g>
</g>

<g transform="matrix( 0.59307861328125, 0.104522705078125, -0.104522705078125, 0.59307861328125, 386.6,9.45) ">
<g>
<g>
<path fill="#F7DAA2" stroke="none" d="
M 1118.85 184.6
Q 1119.75 181.05 1122.2 179.7 1119.75 181.05 1118.85 184.6 1124.2 188.4 1127.35 183.05 1129.65 179.3 1133.75 177.4
L 1125.55 170.2
Q 1112.35 178.4 1118.85 184.6
M 1205.9 184.6
Q 1209 189.95 1214.35 186.15 1213.45 182.55 1211.05 181.25 1213.45 182.55 1214.35 186.15 1220.8 179.95 1207.7 171.75
L 1199.2 178.7
Q 1203.6 180.85 1205.9 184.6 Z"/>
</g>
</g>

<g transform="matrix( 1.63531494140625, -0.2881927490234375, 0.2881927490234375, 1.63531494140625, -634.9,95.95) ">
<path stroke="#000000" stroke-width="1" stroke-linejoin="round" stroke-linecap="round" fill="none" d="
M 1087.348112487793 246.77873077392576
Q 1083.7779556274413 248.47323303222655 1082.4986083984377 244.9762420654297 1081.5264877319337 242.51179504394528 1079.141665649414 240.77677612304686
L 1084.9092666625977 237.54332275390624
Q 1091.8215103149414 243.77581481933592 1087.348112487793 246.77873077392576 Z
M 1087.348112487793 246.77873077392576
Q 1087.1906234741211 244.54957733154296 1085.9031143188477 243.52772064208983
M 1030.8711151123048 235.87754058837888
Q 1031.775941467285 233.86618194580078 1033.3700897216797 233.32160644531248
M 1030.8711151123048 235.87754058837888
Q 1033.6468994140625 238.6904357910156 1036.0742935180665 235.846711730957 1037.8303344726564 233.86306915283205 1040.4605499267577 233.16476287841795
L 1036.349868774414 228.03751068115233
Q 1027.664144897461 231.52105560302732 1030.8711151123048 235.87754058837888 Z"/>
</g>
</g>

<g transform="matrix( 1, 0, 0, 1, 12,0) ">
<g>
<g>
<path fill="#FFE1A5" class="logo-golang-3" stroke="none" d="
M 1093.95 161.3
Q 1101.95 159.6 1099.6 152.4 1097.45 146.1 1089 147.6 1090.75 149.8 1091.9 152.25 1096 151.5 1095.8 155.15 1095.65 156.85 1093.45 157 1093.85 159.05 1093.95 161.3
M 1038.5 141.15
Q 1036.75 142.7 1035.05 145.05 1033.65 147 1032.5 149.3 1030.2 154 1028.8 160.15
L 1022.35 191.1
Q 1017 212.4 1020.2 219.55 1023.25 234.7 1043.6 240.05 1059.6 244.65 1073.4 238.45 1083.35 232.8 1086.1 213 1085.7 205.35 1088.9 189.95 1093.35 177.65 1093.95 161.3 1093.85 159.05 1093.45 157 1092.9 154.5 1091.9 152.25 1090.75 149.8 1089 147.6 1081.25 138.25 1061.65 135.75 1050.05 133.95 1041.85 138.7 1040.2 139.65 1038.5 141.15
M 1041.9 147.25
Q 1042.55 143.4 1046 141.2 1049.5 138.95 1053.65 139.7 1057.85 140.45 1060.3 143.7 1062.75 146.95 1062.1 150.8 1061.4 154.7 1057.95 156.95 1054.55 159.2 1050.35 158.45 1046.2 157.7 1043.65 154.45 1041.2 151.15 1041.9 147.25
M 1070.8 146.65
Q 1074.3 144.45 1078.45 145.2 1082.6 145.95 1085.1 149.15 1087.65 152.45 1086.95 156.3 1086.25 160.2 1082.8 162.4 1079.3 164.65 1075.15 163.9 1071 163.15 1068.5 159.9 1066 156.6 1066.7 152.7 1067.4 148.85 1070.8 146.65
M 1057.9 160.85
Q 1057.65 160.4 1057.75 159.9 1057.95 158.95 1059.2 158.5 1060.55 158 1062.25 158.35 1063.95 158.6 1065.05 159.55 1066.2 160.4 1066 161.35 1065.95 161.75 1065.65 162 1069.9 163.95 1069.05 167.35 1068.3 170.1 1065.8 169 1065.6 168.9 1065.4 168.85 1064.6 173.95 1062.9 174.35 1060.45 174.15 1060.15 171.9 1059.35 173.8 1057.85 173.45 1055.85 173.3 1055.95 171.1 1056 170.45 1056.2 169.7 1056.45 168.6 1057.1 167.2 1053.15 167.65 1052.95 164.7 1053.15 161 1057.9 160.85
M 1035.05 145.05
Q 1033.1 142.5 1035.85 140.7 1037.3 139.7 1038.5 141.15 1040.2 139.65 1041.85 138.7 1036.25 132.5 1029.9 138.8 1025.55 145.2 1032.5 149.3 1033.65 147 1035.05 145.05 Z"/>

<path fill="#010109" stroke="none" d="
M 1091.9 152.25
Q 1092.9 154.5 1093.45 157 1095.65 156.85 1095.8 155.15 1096 151.5 1091.9 152.25
M 1057.75 159.9
Q 1057.65 160.4 1057.9 160.85 1058.15 161.3 1058.65 161.75 1059.75 162.6 1061.45 162.95 1063.15 163.2 1064.5 162.8 1065.3 162.5 1065.65 162 1065.95 161.75 1066 161.35 1066.2 160.4 1065.05 159.55 1063.95 158.6 1062.25 158.35 1060.55 158 1059.2 158.5 1057.95 158.95 1057.75 159.9
M 1083.5 158.35
Q 1084.55 157.65 1084.75 156.4 1085 155.2 1084.25 154.15 1083.55 153.15 1082.3 152.95 1081.05 152.7 1080.05 153.4 1079 154.15 1078.75 155.35 1078.55 156.6 1079.3 157.6 1080 158.65 1081.25 158.9 1082.5 159.1 1083.5 158.35
M 1080.9 156.05
Q 1081.1 156.35 1081.05 156.65 1081 156.95 1080.75 157.15 1080.45 157.3 1080.2 157.25 1079.9 157.2 1079.7 156.95 1079.5 156.65 1079.55 156.35 1079.6 156.05 1079.85 155.85 1080.15 155.7 1080.45 155.75 1080.7 155.8 1080.9 156.05
M 1057.45 147.8
Q 1056.2 147.55 1055.2 148.2 1054.15 148.95 1053.95 150.2 1053.75 151.4 1054.45 152.45 1055.15 153.45 1056.4 153.7 1057.65 153.9 1058.65 153.2 1059.7 152.45 1059.9 151.25 1060.1 150 1059.4 148.95 1058.7 148 1057.45 147.8
M 1056 150.85
Q 1056.2 151.05 1056.1 151.35 1056.05 151.65 1055.8 151.9 1055.55 152.05 1055.25 152 1054.95 151.95 1054.75 151.7 1054.6 151.4 1054.65 151.1 1054.75 150.8 1054.95 150.65 1055.2 150.45 1055.5 150.5 1055.8 150.55 1056 150.85
M 1035.85 140.7
Q 1033.1 142.5 1035.05 145.05 1036.75 142.7 1038.5 141.15 1037.3 139.7 1035.85 140.7 Z"/>

<path fill="#FFFFFD" stroke="none" d="
M 1061.05 166.95
Q 1060.85 170.25 1060.15 171.9 1060.45 174.15 1062.9 174.35 1064.6 173.95 1065.4 168.85 1065.1 168.65 1064.65 168.4 1062.95 167.2 1061.05 166.95
M 1061.05 166.95
Q 1059.15 166.65 1057.1 167.2 1056.45 168.6 1056.2 169.7 1056 170.45 1055.95 171.1 1055.85 173.3 1057.85 173.45 1059.35 173.8 1060.15 171.9 1060.85 170.25 1061.05 166.95
M 1078.45 145.2
Q 1074.3 144.45 1070.8 146.65 1067.4 148.85 1066.7 152.7 1066 156.6 1068.5 159.9 1071 163.15 1075.15 163.9 1079.3 164.65 1082.8 162.4 1086.25 160.2 1086.95 156.3 1087.65 152.45 1085.1 149.15 1082.6 145.95 1078.45 145.2
M 1084.75 156.4
Q 1084.55 157.65 1083.5 158.35 1082.5 159.1 1081.25 158.9 1080 158.65 1079.3 157.6 1078.55 156.6 1078.75 155.35 1079 154.15 1080.05 153.4 1081.05 152.7 1082.3 152.95 1083.55 153.15 1084.25 154.15 1085 155.2 1084.75 156.4
M 1081.05 156.65
Q 1081.1 156.35 1080.9 156.05 1080.7 155.8 1080.45 155.75 1080.15 155.7 1079.85 155.85 1079.6 156.05 1079.55 156.35 1079.5 156.65 1079.7 156.95 1079.9 157.2 1080.2 157.25 1080.45 157.3 1080.75 157.15 1081 156.95 1081.05 156.65
M 1046 141.2
Q 1042.55 143.4 1041.9 147.25 1041.2 151.15 1043.65 154.45 1046.2 157.7 1050.35 158.45 1054.55 159.2 1057.95 156.95 1061.4 154.7 1062.1 150.8 1062.75 146.95 1060.3 143.7 1057.85 140.45 1053.65 139.7 1049.5 138.95 1046 141.2
M 1055.2 148.2
Q 1056.2 147.55 1057.45 147.8 1058.7 148 1059.4 148.95 1060.1 150 1059.9 151.25 1059.7 152.45 1058.65 153.2 1057.65 153.9 1056.4 153.7 1055.15 153.45 1054.45 152.45 1053.75 151.4 1053.95 150.2 1054.15 148.95 1055.2 148.2
M 1056.1 151.35
Q 1056.2 151.05 1056 150.85 1055.8 150.55 1055.5 150.5 1055.2 150.45 1054.95 150.65 1054.75 150.8 1054.65 151.1 1054.6 151.4 1054.75 151.7 1054.95 151.95 1055.25 152 1055.55 152.05 1055.8 151.9 1056.05 151.65 1056.1 151.35 Z"/>

<path fill="#F7DAA2" stroke="none" d="
M 1061.45 162.95
Q 1059.75 162.6 1058.65 161.75 1058.15 161.3 1057.9 160.85 1053.15 161 1052.95 164.7 1053.15 167.65 1057.1 167.2 1059.15 166.65 1061.05 166.95 1062.95 167.2 1064.65 168.4 1065.1 168.65 1065.4 168.85 1065.6 168.9 1065.8 169 1068.3 170.1 1069.05 167.35 1069.9 163.95 1065.65 162 1065.3 162.5 1064.5 162.8 1063.15 163.2 1061.45 162.95 Z"/>
</g>
</g>

<g>
<path stroke="#000000" stroke-width="0.1" stroke-linejoin="round" stroke-linecap="round" fill="none" d="
M 1062.1 150.8
Q 1061.4 154.7 1057.95 156.95 1054.55 159.2 1050.35 158.45 1046.2 157.7 1043.65 154.45 1041.2 151.15 1041.9 147.25 1042.55 143.4 1046 141.2 1049.5 138.95 1053.65 139.7 1057.85 140.45 1060.3 143.7 1062.75 146.95 1062.1 150.8 Z
M 1038.5 141.15
Q 1040.2 139.65 1041.85 138.7 1036.25 132.5 1029.9 138.8 1025.55 145.2 1032.5 149.3 1033.65 147 1035.05 145.05 1036.75 142.7 1038.5 141.15 Z
M 1041.85 138.7
Q 1050.05 133.95 1061.65 135.75 1081.25 138.25 1089 147.6 1097.45 146.1 1099.6 152.4 1101.95 159.6 1093.95 161.3 1093.35 177.65 1088.9 189.95 1085.7 205.35 1086.1 213 1083.35 232.8 1073.4 238.45 1059.6 244.65 1043.6 240.05 1023.25 234.7 1020.2 219.55 1017 212.4 1022.35 191.1
L 1028.8 160.15
Q 1030.2 154 1032.5 149.3
M 1086.95 156.3
Q 1086.25 160.2 1082.8 162.4 1079.3 164.65 1075.15 163.9 1071 163.15 1068.5 159.9 1066 156.6 1066.7 152.7 1067.4 148.85 1070.8 146.65 1074.3 144.45 1078.45 145.2 1082.6 145.95 1085.1 149.15 1087.65 152.45 1086.95 156.3 Z
M 1093.45 157
Q 1092.9 154.5 1091.9 152.25 1090.75 149.8 1089 147.6
M 1081.05 156.65
Q 1081 156.95 1080.75 157.15 1080.45 157.3 1080.2 157.25 1079.9 157.2 1079.7 156.95 1079.5 156.65 1079.55 156.35 1079.6 156.05 1079.85 155.85 1080.15 155.7 1080.45 155.75 1080.7 155.8 1080.9 156.05 1081.1 156.35 1081.05 156.65 Z
M 1056.1 151.35
Q 1056.05 151.65 1055.8 151.9 1055.55 152.05 1055.25 152 1054.95 151.95 1054.75 151.7 1054.6 151.4 1054.65 151.1 1054.75 150.8 1054.95 150.65 1055.2 150.45 1055.5 150.5 1055.8 150.55 1056 150.85 1056.2 151.05 1056.1 151.35 Z
M 1065.65 162
Q 1069.9 163.95 1069.05 167.35 1068.3 170.1 1065.8 169 1065.6 168.9 1065.4 168.85 1064.6 173.95 1062.9 174.35 1060.45 174.15 1060.15 171.9 1059.35 173.8 1057.85 173.45 1055.85 173.3 1055.95 171.1 1056 170.45 1056.2 169.7 1056.45 168.6 1057.1 167.2 1053.15 167.65 1052.95 164.7 1053.15 161 1057.9 160.85
M 1057.1 167.2
Q 1059.15 166.65 1061.05 166.95 1062.95 167.2 1064.65 168.4 1065.1 168.65 1065.4 168.85
M 1060.15 171.9
Q 1060.85 170.25 1061.05 166.95
M 1093.45 157
Q 1093.85 159.05 1093.95 161.3"/>
</g>
</g>

<g transform="matrix( 0.1212615966796875, 0.0213623046875, -0.0213623046875, 0.1212615966796875, 993.2,137.75) ">
<g>
<g>
<path fill="#E5C115" stroke="none" d="
M 850.9 564.5
L 850.9 200.4 486.8 200.4 486.8 564.5 850.9 564.5 Z"/>
</g>
</g>
</g>

<g transform="matrix( 0.2728729248046875, 0.048065185546875, -0.048065185546875, 0.2728729248046875, 901.8,63.6) ">
<g>
<g>
<path fill="#000000" stroke="none" d="
M 706.4 385.4
Q 710.35 376.3 722.05 386.4
L 732.55 378.9
Q 723.25 364.55 706.05 369.9 689.05 374.95 693.05 396.4 696.2 406.85 714.05 413.45 730.9 418 720.65 426.85 711.55 434.65 699.05 421.95
L 688.55 428.95
Q 698.7 447.95 725.55 441.45 735.95 437.75 737.05 428.45 741.7 407.25 717.55 397.9 702.4 394.5 706.4 385.4
M 678.05 370.4
L 663.55 370.4 663.55 419.45
Q 663.05 433.2 654.55 430.95 650.05 430.15 645.55 423.45
L 634.05 428.95
Q 638.95 444 659.05 444.35 677.25 444.65 678.05 420.45
L 678.05 370.4 Z"/>
</g>
</g>
</g>

<g transform="matrix( 1, 0, 0, 1, 12,0) ">
<g>
<g>
<path fill="#FFE1A5" stroke="none" d="
M 1068.95 203.7
Q 1071.1 208.35 1083.25 204.1
L 1081.4 195.45
Q 1067.2 199.5 1068.95 203.7 Z"/>
</g>
</g>

<g>
<path stroke="#000000" stroke-width="0.1" stroke-linejoin="round" stroke-linecap="round" fill="none" d="
M 1083.25 204.1
Q 1071.1 208.35 1068.95 203.7 1067.2 199.5 1081.4 195.45"/>
</g>
</g>

<g transform="matrix( 1, 0, 0, 1, 70,-38) ">
<g>
<g>
<path fill="#FFE1A5" stroke="none" d="
M 977.1 239.35
Q 982.35 240 977.05 224.5
L 969 225.2
Q 971.85 238.6 977.1 239.35 Z"/>
</g>
</g>

<g>
<path stroke="#000000" stroke-width="0.1" stroke-linejoin="round" stroke-linecap="round" fill="none" d="
M 969 225.2
Q 971.85 238.6 977.1 239.35 982.35 240 977.05 224.5"/>
</g>
</g>

<g transform="matrix( 0.319976806640625, 0, 0, 0.319976806640625, 679.85,176.35) ">
<g>
<g>
<path fill="#456C37" stroke="none" d="
M 210.7 464.6
Q 212.55 485.75 223.2 477.1
L 228 469.45
Q 210.5 476.6 218.15 460.6 199.15 462.2 205.15 452.6 213.95 448.15 226.7 450.85 255.5 456.55 244.4 475.4 233.3 494.2 204.65 500.6 171.15 512.9 152.45 478.9 133.7 444.85 195.2 400.15 184.4 391.85 156.35 424.15 128.25 456.4 147.8 488.15 167.4 519.9 211.2 508.1 265.2 490.85 254.15 460.1 240.05 437.25 202.2 448.1 183.3 457.1 210.7 464.6 Z"/>
</g>
</g>
</g>

<g transform="matrix( 0.4095458984375, 0, 0, 0.4095458984375, 942.45,233.25) ">
<g>
<g>
<path fill="#456C37" stroke="none" d="
M 210.7 464.6
Q 212.55 485.75 223.2 477.1
L 228 469.45
Q 210.5 476.6 218.15 460.6 199.15 462.2 205.15 452.6 213.95 448.15 226.7 450.85 255.5 456.55 244.4 475.4 233.3 494.2 204.65 500.6 171.15 512.9 152.45 478.9 133.7 444.85 195.2 400.15 184.4 391.85 156.35 424.15 128.25 456.4 147.8 488.15 167.4 519.9 211.2 508.1 265.2 490.85 254.15 460.1 240.05 437.25 202.2 448.1 183.3 457.1 210.7 464.6 Z"/>
</g>
</g>
</g>

<g transform="matrix( -1, 0, 0, -1, 1061.6,1100.6) ">
<g>
<g>
<path fill="#FBEFA1" fill-opacity="0.9882352941176471" stroke="none" d="
M 513.1 557.2
Q 531.75 565.5 548.55 543.85 540.85 534.55 513.1 557.2 Z"/>
</g>
</g>
</g>

<g transform="matrix( 1, 0, 0, 1, 0,0) ">
<g>
<g>
<path fill="#90DBFF" stroke="none" d="
M 152.4 361.35
Q 143.44765625 367.5 134.65 363.65 143.1 371.35 152.05 365.7 192.85 374.6 239.05 349.3 254.701953125 339.5875 251.5 330.9 251.4240234375 330.7279296875 251.35 330.55 251.2916015625 330.41015625 251.2 330.25 251.5494140625 331.216796875 250.25 335.5 248.858203125 340.128125 238.65 343.85 237.98125 346.5232421875 230.5 351.15 221.41953125 356.7658203125 199.65 361.25 173.827734375 368.15546875 152.4 361.35 Z"/>

<path fill="#FFFFFF" stroke="none" d="
M 134.65 363.65
Q 143.44765625 367.5 152.4 361.35 173.827734375 368.15546875 199.65 361.25 221.41953125 356.7658203125 230.5 351.15 237.98125 346.5232421875 238.65 343.85 248.858203125 340.128125 250.25 335.5 251.5494140625 331.216796875 251.2 330.25 251.2015625 330.208203125 251.15 330.15 251.1498046875 330.1015625 251.1 330.05 249.9302734375 327.5623046875 247.15 325.15 236.9 316.25 209.35 327.3 203.75 304.05 168.4 318.6 156.25 324.9 148.95 337.55 122.65 347.3 134.65 363.65 Z"/>
</g>
</g>
</g>

<g transform="matrix( 1.5, 0, 0, 1.5, 576.6,-310.3) ">
<g>
<g>
<path fill="#90DBFF" stroke="none" d="
M 152.4 361.35
Q 143.45 367.5 134.65 363.65 143.1 371.35 152.05 365.7 192.85 374.6 239.05 349.3 254.7 339.6 251.5 330.9 251.4 330.75 251.35 330.55 251.3 330.4 251.25 330.3 251.55 331.2 250.25 335.55 248.85 340.15 238.65 343.85 238 346.5 230.5 351.15 221.4 356.75 199.65 361.25 173.85 368.15 152.4 361.35 Z"/>

<path fill="#FFFFFF" stroke="none" d="
M 134.65 363.65
Q 143.45 367.5 152.4 361.35 173.85 368.15 199.65 361.25 221.4 356.75 230.5 351.15 238 346.5 238.65 343.85 248.85 340.15 250.25 335.55 251.55 331.2 251.25 330.3 251.2 330.2 251.2 330.15 251.15 330.1 251.15 330.05 249.95 327.55 247.15 325.15 236.9 316.25 209.35 327.3 203.75 304.05 168.4 318.6 156.25 324.9 148.95 337.55 122.65 347.3 134.65 363.65 Z"/>
</g>
</g>
</g>
</g>
</svg>
